# xmcd
#
# Track frame offsets:
#	150
#	14876
#	30286
#	48687
#	64376
#	81634
#	95249
#	108386
#	122189
#	138409
#	153170
#	168542
#	182624
#	197432
#	210692
#	225583
#	237781
#	254351
#	267607
#	280802
#	294997
#
# Disc length: 4097 seconds
#
# Revision: 0
# Processed by: cddbd v1.5.2PL0 Copyright (c) Steve Scherf et al.
# Submitted via: dBpowerAMP V4.0
#
DISCID=3c0fff15
DTITLE=Chris LeDoux - Used To Want To Be A Cowboy/Thirty Dollar Cowboy
DYEAR=2007
DGENRE=Country
TTITLE0=(I Used To Want To Be A) Cowboy
TTITLE1=The Lights Of Amarillo
TTITLE2=This Cowboy's Hat
TTITLE3=Hobo Dreams
TTITLE4=The Last Cowboy In Town
TTITLE5=You Bring Out The Beast In Me
TTITLE6=He's A Tryer
TTITLE7=Desperado
TTITLE8=Even Cowgirls Get The Blues
TTITLE9=Busted
TTITLE10=The Red Headed Stranger
TTITLE11=They Couldn't Understand My Cowboy Songs
TTITLE12=It Ain't The Years, It's The Miles
TTITLE13=The Greatest Prize
TTITLE14=Call Of The Wild
TTITLE15=Thirty Dollar Cowboy
TTITLE16=Montana Rodeo
TTITLE17=The Last Sunset
TTITLE18=A Cowboy's Got To Ride
TTITLE19=Ballad Of Will Rogers
TTITLE20=Take Me Back To Old Wyoming
EXTD=
EXTT0=
EXTT1=
EXTT2=
EXTT3=
EXTT4=
EXTT5=
EXTT6=
EXTT7=
EXTT8=
EXTT9=
EXTT10=
EXTT11=
EXTT12=
EXTT13=
EXTT14=
EXTT15=
EXTT16=
EXTT17=
EXTT18=
EXTT19=
EXTT20=
PLAYORDER=
